<svg width="250" height="250" viewBox="0 0 250 250" version="1.1" xmlns="http://www.w3.org/2000/svg" xmlns:xlink="http://www.w3.org/1999/xlink">
<g id="Canvas" fill="none">
<g id="Ei-sc-github">
<path id="Vector" fill-rule="evenodd" clip-rule="evenodd" d="M 125.413 0C 56.018 0 0 57.3325 0 128.356C 0 184.833 35.9518 232.753 86.1172 249.867C 92.8059 250.723 94.4781 247.3 94.4781 243.877L 94.4781 221.629C 59.3623 229.33 51.8376 204.514 51.8376 204.514C 45.9849 189.967 37.624 185.689 37.624 185.689C 25.9188 177.987 38.4601 177.987 38.4601 177.987C 51.0015 178.843 57.6902 190.823 57.6902 190.823C 68.5593 210.504 86.9533 204.514 94.4781 201.092C 95.3142 192.535 98.6586 187.4 102.839 183.977C 75.248 180.555 45.9849 169.43 45.9849 120.655C 45.9849 106.964 51.0015 94.9837 58.5263 86.4266C 56.8541 83.0038 52.6736 70.1681 59.3624 52.1982C 59.3624 52.1982 70.2315 48.7754 93.642 65.0339C 103.675 62.4668 114.544 60.7553 125.413 60.7553C 136.283 60.7553 147.152 62.4668 157.185 65.0339C 181.431 48.7754 191.465 52.1982 191.465 52.1982C 198.153 70.1681 193.973 83.0038 192.301 86.4266C 200.661 94.9837 204.842 106.964 204.842 120.655C 204.842 170.286 175.579 180.555 147.988 183.977C 152.168 188.256 156.349 195.957 156.349 207.937L 156.349 243.021C 156.349 246.444 158.857 250.723 164.71 249.011C 214.875 231.897 249.991 183.977 249.991 127.501C 250.827 57.3325 194.809 0 125.413 0Z" fill="#ECECEC"/>
</g>
</g>
</svg>
