<svg width="203" height="34" viewBox="0 0 203 34" version="1.1" xmlns="http://www.w3.org/2000/svg" xmlns:xlink="http://www.w3.org/1999/xlink">
<g id="Canvas" fill="none">
<g id="Group 2">
<path id="Github Star Tagger" d="M 11.2676 21.3828C 10.793 21.9512 10.1221 22.3936 9.25488 22.71C 8.3877 23.0205 7.42676 23.1758 6.37207 23.1758C 5.26465 23.1758 4.29199 22.9355 3.4541 22.4551C 2.62207 21.9688 1.97754 21.2656 1.52051 20.3457C 1.06934 19.4258 0.837891 18.3447 0.826172 17.1025L 0.826172 16.2324C 0.826172 14.9551 1.04004 13.8506 1.46777 12.9189C 1.90137 11.9814 2.52246 11.2666 3.33105 10.7744C 4.14551 10.2764 5.09766 10.0273 6.1875 10.0273C 7.70508 10.0273 8.8916 10.3906 9.74707 11.1172C 10.6025 11.8379 11.1094 12.8896 11.2676 14.2725L 8.70117 14.2725C 8.58398 13.54 8.32324 13.0039 7.91895 12.6641C 7.52051 12.3242 6.96973 12.1543 6.2666 12.1543C 5.37012 12.1543 4.6875 12.4912 4.21875 13.165C 3.75 13.8389 3.5127 14.8408 3.50684 16.1709L 3.50684 16.9883C 3.50684 18.3301 3.76172 19.3438 4.27148 20.0293C 4.78125 20.7148 5.52832 21.0576 6.5127 21.0576C 7.50293 21.0576 8.20898 20.8467 8.63086 20.4248L 8.63086 18.2188L 6.23145 18.2188L 6.23145 16.2764L 11.2676 16.2764L 11.2676 21.3828ZM 15.9258 23L 13.377 23L 13.377 13.4902L 15.9258 13.4902L 15.9258 23ZM 13.2275 11.0293C 13.2275 10.6484 13.3535 10.335 13.6055 10.0889C 13.8633 9.84277 14.2119 9.71973 14.6514 9.71973C 15.085 9.71973 15.4307 9.84277 15.6885 10.0889C 15.9463 10.335 16.0752 10.6484 16.0752 11.0293C 16.0752 11.416 15.9434 11.7324 15.6797 11.9785C 15.4219 12.2246 15.0791 12.3477 14.6514 12.3477C 14.2236 12.3477 13.8779 12.2246 13.6143 11.9785C 13.3564 11.7324 13.2275 11.416 13.2275 11.0293ZM 21.0674 11.1523L 21.0674 13.4902L 22.6934 13.4902L 22.6934 15.3535L 21.0674 15.3535L 21.0674 20.0996C 21.0674 20.4512 21.1348 20.7031 21.2695 20.8555C 21.4043 21.0078 21.6621 21.084 22.043 21.084C 22.3242 21.084 22.5732 21.0635 22.79 21.0225L 22.79 22.9473C 22.292 23.0996 21.7793 23.1758 21.252 23.1758C 19.4707 23.1758 18.5625 22.2764 18.5273 20.4775L 18.5273 15.3535L 17.1387 15.3535L 17.1387 13.4902L 18.5273 13.4902L 18.5273 11.1523L 21.0674 11.1523ZM 26.5869 14.5273C 27.2607 13.7188 28.1074 13.3145 29.127 13.3145C 31.1895 13.3145 32.2354 14.5127 32.2646 16.9092L 32.2646 23L 29.7246 23L 29.7246 16.9795C 29.7246 16.4346 29.6074 16.0332 29.373 15.7754C 29.1387 15.5117 28.749 15.3799 28.2041 15.3799C 27.46 15.3799 26.9209 15.667 26.5869 16.2412L 26.5869 23L 24.0469 23L 24.0469 9.5L 26.5869 9.5L 26.5869 14.5273ZM 39.876 22.0332C 39.249 22.7949 38.3818 23.1758 37.2744 23.1758C 36.2549 23.1758 35.4756 22.8828 34.9365 22.2969C 34.4033 21.7109 34.1309 20.8525 34.1191 19.7217L 34.1191 13.4902L 36.6592 13.4902L 36.6592 19.6338C 36.6592 20.624 37.1104 21.1191 38.0127 21.1191C 38.874 21.1191 39.4658 20.8203 39.7881 20.2227L 39.7881 13.4902L 42.3369 13.4902L 42.3369 23L 39.9463 23L 39.876 22.0332ZM 52.8223 18.333C 52.8223 19.8564 52.4971 21.0459 51.8467 21.9014C 51.1963 22.751 50.2881 23.1758 49.1221 23.1758C 48.0908 23.1758 47.2676 22.7803 46.6523 21.9893L 46.5381 23L 44.2529 23L 44.2529 9.5L 46.793 9.5L 46.793 14.3428C 47.3789 13.6572 48.1494 13.3145 49.1045 13.3145C 50.2646 13.3145 51.1729 13.7422 51.8291 14.5977C 52.4912 15.4473 52.8223 16.6455 52.8223 18.1924L 52.8223 18.333ZM 50.2822 18.1484C 50.2822 17.1875 50.1299 16.4873 49.8252 16.0479C 49.5205 15.6025 49.0664 15.3799 48.4629 15.3799C 47.6543 15.3799 47.0977 15.7109 46.793 16.373L 46.793 20.126C 47.1035 20.7939 47.666 21.1279 48.4805 21.1279C 49.3008 21.1279 49.8398 20.7236 50.0977 19.915C 50.2207 19.5283 50.2822 18.9395 50.2822 18.1484ZM 65.6807 19.6426C 65.6807 19.1445 65.5049 18.7637 65.1533 18.5C 64.8018 18.2305 64.1689 17.9492 63.2549 17.6562C 62.3408 17.3574 61.6172 17.0645 61.084 16.7773C 59.6309 15.9922 58.9043 14.9346 58.9043 13.6045C 58.9043 12.9131 59.0977 12.2979 59.4844 11.7588C 59.877 11.2139 60.4365 10.7891 61.1631 10.4844C 61.8955 10.1797 62.7158 10.0273 63.624 10.0273C 64.5381 10.0273 65.3525 10.1943 66.0674 10.5283C 66.7822 10.8564 67.3359 11.3223 67.7285 11.9258C 68.127 12.5293 68.3262 13.2148 68.3262 13.9824L 65.6895 13.9824C 65.6895 13.3965 65.5049 12.9424 65.1357 12.6201C 64.7666 12.292 64.248 12.1279 63.5801 12.1279C 62.9355 12.1279 62.4346 12.2656 62.0771 12.541C 61.7197 12.8105 61.541 13.168 61.541 13.6133C 61.541 14.0293 61.749 14.3779 62.165 14.6592C 62.5869 14.9404 63.2051 15.2041 64.0195 15.4502C 65.5195 15.9014 66.6123 16.4609 67.2979 17.1289C 67.9834 17.7969 68.3262 18.6289 68.3262 19.625C 68.3262 20.7324 67.9072 21.6025 67.0693 22.2354C 66.2314 22.8623 65.1035 23.1758 63.6855 23.1758C 62.7012 23.1758 61.8047 22.9971 60.9961 22.6396C 60.1875 22.2764 59.5693 21.7812 59.1416 21.1543C 58.7197 20.5273 58.5088 19.8008 58.5088 18.9746L 61.1543 18.9746C 61.1543 20.3867 61.998 21.0928 63.6855 21.0928C 64.3125 21.0928 64.8018 20.9668 65.1533 20.7148C 65.5049 20.457 65.6807 20.0996 65.6807 19.6426ZM 72.9932 11.1523L 72.9932 13.4902L 74.6191 13.4902L 74.6191 15.3535L 72.9932 15.3535L 72.9932 20.0996C 72.9932 20.4512 73.0605 20.7031 73.1953 20.8555C 73.3301 21.0078 73.5879 21.084 73.9688 21.084C 74.25 21.084 74.499 21.0635 74.7158 21.0225L 74.7158 22.9473C 74.2178 23.0996 73.7051 23.1758 73.1777 23.1758C 71.3965 23.1758 70.4883 22.2764 70.4531 20.4775L 70.4531 15.3535L 69.0645 15.3535L 69.0645 13.4902L 70.4531 13.4902L 70.4531 11.1523L 72.9932 11.1523ZM 81.5449 23C 81.4277 22.7715 81.3428 22.4873 81.29 22.1475C 80.6748 22.833 79.875 23.1758 78.8906 23.1758C 77.959 23.1758 77.1855 22.9062 76.5703 22.3672C 75.9609 21.8281 75.6562 21.1484 75.6562 20.3281C 75.6562 19.3203 76.0283 18.5469 76.7725 18.0078C 77.5225 17.4688 78.6035 17.1963 80.0156 17.1904L 81.1846 17.1904L 81.1846 16.6455C 81.1846 16.2061 81.0703 15.8545 80.8418 15.5908C 80.6191 15.3271 80.2646 15.1953 79.7783 15.1953C 79.3506 15.1953 79.0137 15.2979 78.7676 15.5029C 78.5273 15.708 78.4072 15.9893 78.4072 16.3467L 75.8672 16.3467C 75.8672 15.7959 76.0371 15.2861 76.377 14.8174C 76.7168 14.3486 77.1973 13.9824 77.8184 13.7188C 78.4395 13.4492 79.1367 13.3145 79.9102 13.3145C 81.082 13.3145 82.0107 13.6104 82.6963 14.2021C 83.3877 14.7881 83.7334 15.6143 83.7334 16.6807L 83.7334 20.8027C 83.7393 21.7051 83.8652 22.3877 84.1113 22.8506L 84.1113 23L 81.5449 23ZM 79.4443 21.2334C 79.8193 21.2334 80.165 21.1514 80.4814 20.9873C 80.7979 20.8174 81.0322 20.5918 81.1846 20.3105L 81.1846 18.6758L 80.2354 18.6758C 78.9639 18.6758 78.2871 19.1152 78.2051 19.9941L 78.1963 20.1436C 78.1963 20.46 78.3076 20.7207 78.5303 20.9258C 78.7529 21.1309 79.0576 21.2334 79.4443 21.2334ZM 91.0283 15.8721C 90.6826 15.8252 90.3779 15.8018 90.1143 15.8018C 89.1533 15.8018 88.5234 16.127 88.2246 16.7773L 88.2246 23L 85.6846 23L 85.6846 13.4902L 88.084 13.4902L 88.1543 14.624C 88.6641 13.751 89.3701 13.3145 90.2725 13.3145C 90.5537 13.3145 90.8174 13.3525 91.0635 13.4287L 91.0283 15.8721ZM 106.014 12.3389L 102.094 12.3389L 102.094 23L 99.457 23L 99.457 12.3389L 95.5898 12.3389L 95.5898 10.2031L 106.014 10.2031L 106.014 12.3389ZM 111.393 23C 111.275 22.7715 111.19 22.4873 111.138 22.1475C 110.522 22.833 109.723 23.1758 108.738 23.1758C 107.807 23.1758 107.033 22.9062 106.418 22.3672C 105.809 21.8281 105.504 21.1484 105.504 20.3281C 105.504 19.3203 105.876 18.5469 106.62 18.0078C 107.37 17.4688 108.451 17.1963 109.863 17.1904L 111.032 17.1904L 111.032 16.6455C 111.032 16.2061 110.918 15.8545 110.689 15.5908C 110.467 15.3271 110.112 15.1953 109.626 15.1953C 109.198 15.1953 108.861 15.2979 108.615 15.5029C 108.375 15.708 108.255 15.9893 108.255 16.3467L 105.715 16.3467C 105.715 15.7959 105.885 15.2861 106.225 14.8174C 106.564 14.3486 107.045 13.9824 107.666 13.7188C 108.287 13.4492 108.984 13.3145 109.758 13.3145C 110.93 13.3145 111.858 13.6104 112.544 14.2021C 113.235 14.7881 113.581 15.6143 113.581 16.6807L 113.581 20.8027C 113.587 21.7051 113.713 22.3877 113.959 22.8506L 113.959 23L 111.393 23ZM 109.292 21.2334C 109.667 21.2334 110.013 21.1514 110.329 20.9873C 110.646 20.8174 110.88 20.5918 111.032 20.3105L 111.032 18.6758L 110.083 18.6758C 108.812 18.6758 108.135 19.1152 108.053 19.9941L 108.044 20.1436C 108.044 20.46 108.155 20.7207 108.378 20.9258C 108.601 21.1309 108.905 21.2334 109.292 21.2334ZM 115.163 18.1748C 115.163 16.7158 115.509 15.541 116.2 14.6504C 116.897 13.7598 117.835 13.3145 119.013 13.3145C 120.056 13.3145 120.867 13.6719 121.447 14.3867L 121.553 13.4902L 123.855 13.4902L 123.855 22.6836C 123.855 23.5156 123.665 24.2393 123.284 24.8545C 122.909 25.4697 122.379 25.9385 121.693 26.2607C 121.008 26.583 120.205 26.7441 119.285 26.7441C 118.588 26.7441 117.908 26.6035 117.246 26.3223C 116.584 26.0469 116.083 25.6895 115.743 25.25L 116.868 23.7031C 117.501 24.4121 118.269 24.7666 119.171 24.7666C 119.845 24.7666 120.369 24.585 120.744 24.2217C 121.119 23.8643 121.307 23.3545 121.307 22.6924L 121.307 22.1826C 120.721 22.8447 119.95 23.1758 118.995 23.1758C 117.853 23.1758 116.927 22.7305 116.218 21.8398C 115.515 20.9434 115.163 19.7568 115.163 18.2803L 115.163 18.1748ZM 117.703 18.3594C 117.703 19.2207 117.876 19.8975 118.222 20.3896C 118.567 20.876 119.042 21.1191 119.646 21.1191C 120.419 21.1191 120.973 20.8291 121.307 20.249L 121.307 16.25C 120.967 15.6699 120.419 15.3799 119.663 15.3799C 119.054 15.3799 118.573 15.6289 118.222 16.127C 117.876 16.625 117.703 17.3691 117.703 18.3594ZM 125.446 18.1748C 125.446 16.7158 125.792 15.541 126.483 14.6504C 127.181 13.7598 128.118 13.3145 129.296 13.3145C 130.339 13.3145 131.15 13.6719 131.73 14.3867L 131.836 13.4902L 134.139 13.4902L 134.139 22.6836C 134.139 23.5156 133.948 24.2393 133.567 24.8545C 133.192 25.4697 132.662 25.9385 131.977 26.2607C 131.291 26.583 130.488 26.7441 129.568 26.7441C 128.871 26.7441 128.191 26.6035 127.529 26.3223C 126.867 26.0469 126.366 25.6895 126.026 25.25L 127.151 23.7031C 127.784 24.4121 128.552 24.7666 129.454 24.7666C 130.128 24.7666 130.652 24.585 131.027 24.2217C 131.402 23.8643 131.59 23.3545 131.59 22.6924L 131.59 22.1826C 131.004 22.8447 130.233 23.1758 129.278 23.1758C 128.136 23.1758 127.21 22.7305 126.501 21.8398C 125.798 20.9434 125.446 19.7568 125.446 18.2803L 125.446 18.1748ZM 127.986 18.3594C 127.986 19.2207 128.159 19.8975 128.505 20.3896C 128.851 20.876 129.325 21.1191 129.929 21.1191C 130.702 21.1191 131.256 20.8291 131.59 20.249L 131.59 16.25C 131.25 15.6699 130.702 15.3799 129.946 15.3799C 129.337 15.3799 128.856 15.6289 128.505 16.127C 128.159 16.625 127.986 17.3691 127.986 18.3594ZM 140.476 23.1758C 139.081 23.1758 137.944 22.748 137.065 21.8926C 136.192 21.0371 135.756 19.8975 135.756 18.4736L 135.756 18.2275C 135.756 17.2725 135.94 16.4199 136.31 15.6699C 136.679 14.9141 137.2 14.334 137.874 13.9297C 138.554 13.5195 139.327 13.3145 140.194 13.3145C 141.495 13.3145 142.518 13.7246 143.262 14.5449C 144.012 15.3652 144.387 16.5283 144.387 18.0342L 144.387 19.0713L 138.331 19.0713C 138.413 19.6924 138.659 20.1904 139.069 20.5654C 139.485 20.9404 140.01 21.1279 140.643 21.1279C 141.621 21.1279 142.386 20.7734 142.937 20.0645L 144.185 21.4619C 143.804 22.001 143.288 22.4229 142.638 22.7275C 141.987 23.0264 141.267 23.1758 140.476 23.1758ZM 140.186 15.3711C 139.682 15.3711 139.271 15.541 138.955 15.8809C 138.645 16.2207 138.445 16.707 138.357 17.3398L 141.891 17.3398L 141.891 17.1377C 141.879 16.5752 141.727 16.1416 141.434 15.8369C 141.141 15.5264 140.725 15.3711 140.186 15.3711ZM 151.181 15.8721C 150.835 15.8252 150.53 15.8018 150.267 15.8018C 149.306 15.8018 148.676 16.127 148.377 16.7773L 148.377 23L 145.837 23L 145.837 13.4902L 148.236 13.4902L 148.307 14.624C 148.816 13.751 149.522 13.3145 150.425 13.3145C 150.706 13.3145 150.97 13.3525 151.216 13.4287L 151.181 15.8721Z" transform="translate(51 0)" fill="#E2EBEF"/>
<g id="Group">
<g id="if_github_291716">
<g id="Group_2">
<path id="Vector" fill-rule="evenodd" clip-rule="evenodd" d="M 17.3515 20.7524C 20.2745 20.4072 23.3833 19.3444 23.3833 14.2958C 23.3833 12.8609 22.878 11.6914 22.055 10.7879C 22.1878 10.4428 22.6125 9.14057 21.8948 7.33395C 21.8948 7.33395 20.832 6.98836 18.3347 8.66221C 17.2719 8.37023 16.1029 8.18391 15.0135 8.18391C 13.8971 8.18391 12.7277 8.37023 11.6914 8.66221C 9.16705 6.98836 8.10428 7.33395 8.10428 7.33395C 7.38703 9.14057 7.8123 10.4428 7.94502 10.7879C 7.12113 11.6914 6.61629 12.8609 6.61629 14.2958C 6.61629 19.3444 9.7251 20.4072 12.648 20.7524C 12.2763 21.0718 11.9308 21.6824 11.798 22.5329C 11.0538 22.8515 9.11397 23.4629 7.94502 21.4435C 7.94502 21.4435 7.25391 20.1949 5.95213 20.1152C 5.95213 20.1152 4.64994 20.0887 5.8459 20.9116C 5.8459 20.9116 6.72246 21.3108 7.3074 22.8249C 7.3074 22.8249 8.10428 25.3496 11.771 24.5522L 11.771 26.8106C 11.771 27.1567 11.5056 27.5549 10.8414 27.4487C 5.63314 25.7213 1.88672 20.7789 1.88672 14.9865C 1.88672 7.73221 7.75875 1.86023 15.0135 1.86023C 22.2408 1.86023 28.1398 7.73227 28.1133 14.9865C 28.1133 20.7789 24.3664 25.6948 19.1585 27.4487C 18.4939 27.5815 18.2285 27.1833 18.2285 26.8106L 18.2285 23.1709C 18.2285 21.9479 17.8294 21.1515 17.3515 20.7524ZM 30 15.0135C 30 6.72246 23.2771 0 15.0135 0C 6.72246 0 0 6.72246 0 15.0135C 0 23.2771 6.72246 30 15.0135 30C 23.2771 30 30 23.2771 30 15.0135Z" transform="translate(2.80664 0)" fill="#D2D2D2"/>
</g>
</g>
<rect id="Rectangle" width="2" height="11.5549" rx="1" transform="matrix(0.707107 0.707107 -0.707107 0.707107 8.17053 24)" fill="#D2D2D2"/>
</g>
</g>
</g>
</svg>
