<svg width="100" height="100" viewBox="0 0 100 100" version="1.1" xmlns="http://www.w3.org/2000/svg" xmlns:xlink="http://www.w3.org/1999/xlink">
<g id="Canvas" fill="none">
<g id="plus-circle">
<path id="Vector" d="M 75 55L 55 55L 55 75L 45 75L 45 55L 25 55L 25 45L 45 45L 45 25L 55 25L 55 45L 75 45L 75 55ZM 50 0C 43.4339 0 36.9321 1.29329 30.8658 3.80602C 24.7995 6.31876 19.2876 10.0017 14.6447 14.6447C 5.26784 24.0215 0 36.7392 0 50C 0 63.2608 5.26784 75.9785 14.6447 85.3553C 19.2876 89.9983 24.7995 93.6812 30.8658 96.194C 36.9321 98.7067 43.4339 100 50 100C 63.2608 100 75.9785 94.7322 85.3553 85.3553C 94.7322 75.9785 100 63.2608 100 50C 100 43.4339 98.7067 36.9321 96.194 30.8658C 93.6812 24.7995 89.9983 19.2876 85.3553 14.6447C 80.7124 10.0017 75.2005 6.31876 69.1342 3.80602C 63.0679 1.29329 56.5661 0 50 0Z" fill="#E2EBEF"/>
</g>
</g>
</svg>
