<svg width="15" height="15" viewBox="0 0 15 15" version="1.1" xmlns="http://www.w3.org/2000/svg" xmlns:xlink="http://www.w3.org/1999/xlink">
<g id="Canvas" fill="none">
<g id="icons8-search">
<path id="Vector" d="M 6.24623 0C 2.80393 0 0 2.80393 0 6.24623C 0 9.68853 2.80393 12.4925 6.24623 12.4925C 7.74314 12.4925 9.11786 11.9609 10.1953 11.0785L 13.9247 14.808C 13.9823 14.8679 14.0512 14.9158 14.1275 14.9487C 14.2038 14.9817 14.2859 14.9991 14.369 15C 14.4521 15.0008 14.5345 14.9851 14.6114 14.9537C 14.6884 14.9222 14.7583 14.8758 14.817 14.817C 14.8758 14.7583 14.9222 14.6884 14.9537 14.6114C 14.9851 14.5345 15.0008 14.4521 15 14.369C 14.9991 14.2859 14.9817 14.2038 14.9487 14.1275C 14.9158 14.0512 14.8679 13.9823 14.808 13.9247L 11.0785 10.1953C 11.9609 9.11786 12.4925 7.74314 12.4925 6.24623C 12.4925 2.80393 9.68853 0 6.24623 0ZM 6.24623 1.24925C 9.01338 1.24925 11.2432 3.47907 11.2432 6.24623C 11.2432 9.01338 9.01338 11.2432 6.24623 11.2432C 3.47907 11.2432 1.24925 9.01338 1.24925 6.24623C 1.24925 3.47907 3.47907 1.24925 6.24623 1.24925Z" fill="#728895"/>
</g>
</g>
</svg>
